<mxfile host="app.diagrams.net" modified="2021-08-22T17:56:40.185Z" agent="5.0 (Windows NT 10.0; Win64; x64) AppleWebKit/537.36 (KHTML, like Gecko) Chrome/92.0.4515.159 Safari/537.36" etag="zTf92S_AqYQrFka385dx" version="14.9.8" type="github">
  <diagram id="F1IOSqSEKDX7nufNKmgv" name="Page-1">
    <mxGraphModel dx="1038" dy="579" grid="1" gridSize="10" guides="1" tooltips="1" connect="1" arrows="1" fold="1" page="1" pageScale="1" pageWidth="827" pageHeight="1169" math="0" shadow="0">
      <root>
        <mxCell id="0" />
        <mxCell id="1" parent="0" />
        <mxCell id="rzpwg9iLjh24RVf3IzH9-1" value="Khách hàng" style="shape=umlLifeline;perimeter=lifelinePerimeter;container=1;collapsible=0;recursiveResize=0;rounded=0;shadow=0;strokeWidth=1;" vertex="1" parent="1">
          <mxGeometry x="120" y="80" width="100" height="320" as="geometry" />
        </mxCell>
        <mxCell id="rzpwg9iLjh24RVf3IzH9-2" value="" style="points=[];perimeter=orthogonalPerimeter;rounded=0;shadow=0;strokeWidth=1;" vertex="1" parent="rzpwg9iLjh24RVf3IzH9-1">
          <mxGeometry x="45" y="60" width="10" height="40" as="geometry" />
        </mxCell>
        <mxCell id="rzpwg9iLjh24RVf3IzH9-3" value="Thiết bị/Giao diện" style="shape=umlLifeline;perimeter=lifelinePerimeter;container=1;collapsible=0;recursiveResize=0;rounded=0;shadow=0;strokeWidth=1;" vertex="1" parent="1">
          <mxGeometry x="300" y="80" width="100" height="320" as="geometry" />
        </mxCell>
        <mxCell id="rzpwg9iLjh24RVf3IzH9-4" value="" style="points=[];perimeter=orthogonalPerimeter;rounded=0;shadow=0;strokeWidth=1;" vertex="1" parent="rzpwg9iLjh24RVf3IzH9-3">
          <mxGeometry x="45" y="100" width="10" height="40" as="geometry" />
        </mxCell>
        <mxCell id="rzpwg9iLjh24RVf3IzH9-5" value="Nhập Email, họ tên, nội &#xa;dung phản hồi" style="verticalAlign=bottom;endArrow=block;shadow=0;strokeWidth=1;" edge="1" parent="1" source="rzpwg9iLjh24RVf3IzH9-2" target="rzpwg9iLjh24RVf3IzH9-4">
          <mxGeometry relative="1" as="geometry">
            <mxPoint x="275" y="160" as="sourcePoint" />
            <mxPoint x="320" y="200" as="targetPoint" />
            <Array as="points">
              <mxPoint x="240" y="180" />
              <mxPoint x="320" y="180" />
            </Array>
          </mxGeometry>
        </mxCell>
        <mxCell id="rzpwg9iLjh24RVf3IzH9-6" value="Hệ thống" style="shape=umlLifeline;perimeter=lifelinePerimeter;container=1;collapsible=0;recursiveResize=0;rounded=0;shadow=0;strokeWidth=1;" vertex="1" parent="1">
          <mxGeometry x="480" y="80" width="100" height="320" as="geometry" />
        </mxCell>
        <mxCell id="rzpwg9iLjh24RVf3IzH9-7" value="" style="points=[];perimeter=orthogonalPerimeter;rounded=0;shadow=0;strokeWidth=1;" vertex="1" parent="rzpwg9iLjh24RVf3IzH9-6">
          <mxGeometry x="45" y="140" width="10" height="40" as="geometry" />
        </mxCell>
        <mxCell id="rzpwg9iLjh24RVf3IzH9-8" value="Yêu cầu hệ thống gửi phản hồi&#xa; đến đơn vị chủ quản" style="verticalAlign=bottom;endArrow=block;shadow=0;strokeWidth=1;" edge="1" parent="1" source="rzpwg9iLjh24RVf3IzH9-4" target="rzpwg9iLjh24RVf3IzH9-7">
          <mxGeometry relative="1" as="geometry">
            <mxPoint x="350" y="160.0000000000001" as="sourcePoint" />
            <mxPoint x="520" y="160.0000000000001" as="targetPoint" />
            <Array as="points">
              <mxPoint x="410" y="220" />
            </Array>
          </mxGeometry>
        </mxCell>
        <mxCell id="rzpwg9iLjh24RVf3IzH9-9" value="" style="html=1;points=[];perimeter=orthogonalPerimeter;" vertex="1" parent="1">
          <mxGeometry x="525" y="300" width="10" height="40" as="geometry" />
        </mxCell>
        <mxCell id="rzpwg9iLjh24RVf3IzH9-10" value="" style="edgeStyle=orthogonalEdgeStyle;html=1;align=left;spacingLeft=2;endArrow=block;rounded=0;entryX=1;entryY=0;" edge="1" parent="1" target="rzpwg9iLjh24RVf3IzH9-9">
          <mxGeometry relative="1" as="geometry">
            <mxPoint x="535" y="250" as="sourcePoint" />
            <Array as="points">
              <mxPoint x="535" y="260" />
              <mxPoint x="565" y="260" />
              <mxPoint x="565" y="300" />
            </Array>
          </mxGeometry>
        </mxCell>
        <mxCell id="rzpwg9iLjh24RVf3IzH9-11" value="Trả về phản hồi thành công" style="html=1;verticalAlign=bottom;endArrow=block;" edge="1" parent="1" source="rzpwg9iLjh24RVf3IzH9-7" target="rzpwg9iLjh24RVf3IzH9-12">
          <mxGeometry width="80" relative="1" as="geometry">
            <mxPoint x="520" y="260" as="sourcePoint" />
            <mxPoint x="460" y="300" as="targetPoint" />
            <Array as="points">
              <mxPoint x="500" y="260" />
              <mxPoint x="440" y="260" />
            </Array>
          </mxGeometry>
        </mxCell>
        <mxCell id="rzpwg9iLjh24RVf3IzH9-12" value="" style="points=[];perimeter=orthogonalPerimeter;rounded=0;shadow=0;strokeWidth=1;" vertex="1" parent="1">
          <mxGeometry x="345" y="260" width="10" height="40" as="geometry" />
        </mxCell>
        <mxCell id="rzpwg9iLjh24RVf3IzH9-13" value="Hiển thị thông báo phản &lt;br&gt;hồi thành công" style="html=1;verticalAlign=bottom;endArrow=block;" edge="1" parent="1" source="rzpwg9iLjh24RVf3IzH9-12" target="rzpwg9iLjh24RVf3IzH9-1">
          <mxGeometry width="80" relative="1" as="geometry">
            <mxPoint x="345" y="299" as="sourcePoint" />
            <mxPoint x="175" y="299" as="targetPoint" />
            <Array as="points">
              <mxPoint x="320" y="299" />
              <mxPoint x="260" y="299" />
            </Array>
          </mxGeometry>
        </mxCell>
        <mxCell id="rzpwg9iLjh24RVf3IzH9-14" value="Trả về phản hồi thất bại" style="html=1;verticalAlign=bottom;endArrow=block;" edge="1" parent="1" source="rzpwg9iLjh24RVf3IzH9-9" target="rzpwg9iLjh24RVf3IzH9-15">
          <mxGeometry width="80" relative="1" as="geometry">
            <mxPoint x="525" y="360" as="sourcePoint" />
            <mxPoint x="355" y="360" as="targetPoint" />
            <Array as="points">
              <mxPoint x="500" y="340" />
              <mxPoint x="440" y="340" />
              <mxPoint x="400" y="340" />
            </Array>
          </mxGeometry>
        </mxCell>
        <mxCell id="rzpwg9iLjh24RVf3IzH9-15" value="" style="html=1;points=[];perimeter=orthogonalPerimeter;" vertex="1" parent="1">
          <mxGeometry x="345" y="340" width="10" height="40" as="geometry" />
        </mxCell>
        <mxCell id="rzpwg9iLjh24RVf3IzH9-16" value="Thông báo nhập sai thông tin &amp;amp; &lt;br&gt;Yêu cầu nhập lại thông tin khác" style="html=1;verticalAlign=bottom;endArrow=block;" edge="1" parent="1" source="rzpwg9iLjh24RVf3IzH9-15" target="rzpwg9iLjh24RVf3IzH9-1">
          <mxGeometry width="80" relative="1" as="geometry">
            <mxPoint x="345" y="400" as="sourcePoint" />
            <mxPoint x="175" y="400" as="targetPoint" />
            <Array as="points">
              <mxPoint x="320" y="380" />
              <mxPoint x="270" y="380" />
            </Array>
          </mxGeometry>
        </mxCell>
        <mxCell id="rzpwg9iLjh24RVf3IzH9-17" value="Phản hồi bằng Email" style="text;align=center;fontStyle=1;verticalAlign=middle;spacingLeft=3;spacingRight=3;strokeColor=none;rotatable=0;points=[[0,0.5],[1,0.5]];portConstraint=eastwest;" vertex="1" parent="1">
          <mxGeometry x="310" y="40" width="80" height="26" as="geometry" />
        </mxCell>
      </root>
    </mxGraphModel>
  </diagram>
</mxfile>
